 http://www.imdb.com/title/tt0824758/

IMMDB Rating 7.0

Another re upload of a dead torrent. I will seed it for some weeks, 24x7. Please reseed after download. My upload speed is only 512kbps. So uploading will be slow. But surly uploaded.

All credits to Original uploader only.

The.Last.Station.2010.LIMITED.1080p.Bluray.x264-CBGB.mkv
Format                                   : Matroska
Format version                           : Version 2
File size                                : 7.95 GiB
Duration                                 : 1h 52mn
Overall bit rate                         : 10.1 Mbps
Encoded date                             : UTC 2008-05-31 15:49:33
Writing application                      : mkvmerge v3.4.0 ('Rapunzel') built on May 15 2010 09:38:20
Writing library                          : libebml v0.8.0 + libmatroska v0.9.0

Video
ID                                       : 1
Format                                   : AVC
Format/Info                              : Advanced Video Codec
Format profile                           : High@L4.0
Format settings, CABAC                   : Yes
Format settings, ReFrames                : 5 frames
Codec ID                                 : V_MPEG4/ISO/AVC
Duration                                 : 1h 52mn
Bit rate                                 : 8 560 Kbps
Width                                    : 1 920 pixels
Height                                   : 816 pixels
Display aspect ratio                     : 2.35:1
Frame rate                               : 23.976 fps
Color space                              : YUV
Chroma subsampling                       : 4:2:0
Bit depth                                : 8 bits
Scan type                                : Progressive
Bits/(Pixel*Frame)                       : 0.228
Stream size                              : 6.60 GiB (83%)
Writing library                          : x264 core 98 r1629 2e81ce1

Language                                 : English
Default                                  : No
Forced                                   : No

Audio
ID                                       : 2
Format                                   : DTS
Format/Info                              : Digital Theater Systems
Codec ID                                 : A_DTS
Duration                                 : 1h 52mn
Bit rate mode                            : Constant
Bit rate                                 : 1 510 Kbps
Channel(s)                               : 6 channels
Channel positions                        : Front: L C R, Side: L R, LFE
Sampling rate                            : 48.0 KHz
Bit depth                                : 24 bits
Compression mode                         : Lossy
Stream size                              : 1.19 GiB (15%)
Language                                 : English
Default                                  : Yes
Forced                                   : No

Text
ID                                       : 3
Format                                   : UTF-8
Codec ID                                 : S_TEXT/UTF8
Codec ID/Info                            : UTF-8 Plain Text
Language                                 : English
Default                                  : Yes
Forced                                   : No